<?xml version="1.0" encoding="UTF-8"?>
<svg xmlns="http://www.w3.org/2000/svg" xmlns:xlink="http://www.w3.org/1999/xlink" viewBox="0 0 150 150" width="150px" height="150px">
<g id="surface640613">
<path style=" stroke:none;fill-rule:nonzero;fill:rgb(0%,0%,0%);fill-opacity:1;" d="M 15 6 C 13.34375 6 12 7.34375 12 9 L 12 48 C 12 49.097656 12.601562 50.105469 13.566406 50.632812 L 46.566406 68.632812 C 47.492188 69.136719 48.621094 69.117188 49.53125 68.578125 C 50.441406 68.035156 51 67.058594 51 66 L 51 27 C 51 25.902344 50.398438 24.894531 49.4375 24.367188 L 16.4375 6.367188 C 15.996094 6.128906 15.5 6 15 6 Z M 60 30 C 58.34375 30 57 31.34375 57 33 L 57 72 C 57 73.097656 57.601562 74.105469 58.5625 74.632812 L 91.5625 92.632812 C 92.492188 93.136719 93.621094 93.117188 94.53125 92.578125 C 95.441406 92.035156 96 91.058594 96 90 L 96 51 C 96 49.902344 95.398438 48.894531 94.4375 48.367188 L 61.4375 30.367188 C 60.996094 30.128906 60.5 30 60 30 Z M 137.914062 30 C 137.441406 30.015625 136.976562 30.140625 136.566406 30.367188 L 103.566406 48.367188 C 102.601562 48.894531 102 49.902344 102 51 L 102 90 C 102 91.058594 102.558594 92.035156 103.46875 92.578125 C 104.378906 93.117188 105.507812 93.136719 106.4375 92.632812 L 139.4375 74.632812 C 140.398438 74.105469 141 73.097656 141 72 L 141 33 C 141 32.1875 140.671875 31.414062 140.089844 30.847656 C 139.507812 30.28125 138.722656 29.976562 137.914062 30 Z M 60 81 C 58.34375 81 57 82.34375 57 84 L 57 123 C 57 124.097656 57.601562 125.105469 58.5625 125.632812 L 91.5625 143.632812 C 92.492188 144.136719 93.621094 144.117188 94.53125 143.578125 C 95.441406 143.035156 96 142.058594 96 141 L 96 102 C 96 100.902344 95.398438 99.894531 94.4375 99.367188 L 61.4375 81.367188 C 60.996094 81.128906 60.5 81 60 81 Z M 60 81 "/>
</g>
</svg>
